<mxfile host="app.diagrams.net" modified="2021-03-16T17:18:01.947Z" agent="5.0 (Windows NT 10.0; Win64; x64) AppleWebKit/537.36 (KHTML, like Gecko) Chrome/89.0.4389.90 Safari/537.36 Edg/89.0.774.54" etag="ItFDx72GCzpgmQFjc5mL" version="14.4.8" type="github">
  <diagram id="wP2NOlxbwoGKH6KWYPvX" name="Page-1">
    <mxGraphModel dx="871" dy="336" grid="1" gridSize="10" guides="1" tooltips="1" connect="1" arrows="1" fold="1" page="1" pageScale="1" pageWidth="827" pageHeight="1169" math="0" shadow="0">
      <root>
        <mxCell id="0" />
        <mxCell id="1" parent="0" />
        <mxCell id="vgd39OWLLYg51wn1CGAO-1" value="Inscrições" style="rounded=0;whiteSpace=wrap;html=1;" vertex="1" parent="1">
          <mxGeometry x="348" y="30" width="110" height="30" as="geometry" />
        </mxCell>
        <mxCell id="vgd39OWLLYg51wn1CGAO-4" value="Matrícula" style="ellipse;whiteSpace=wrap;html=1;" vertex="1" parent="1">
          <mxGeometry x="68" y="100" width="70" height="30" as="geometry" />
        </mxCell>
        <mxCell id="vgd39OWLLYg51wn1CGAO-6" value="Nome" style="ellipse;whiteSpace=wrap;html=1;" vertex="1" parent="1">
          <mxGeometry x="148" y="100" width="70" height="30" as="geometry" />
        </mxCell>
        <mxCell id="vgd39OWLLYg51wn1CGAO-7" value="Idade" style="ellipse;whiteSpace=wrap;html=1;" vertex="1" parent="1">
          <mxGeometry x="228" y="100" width="70" height="30" as="geometry" />
        </mxCell>
        <mxCell id="vgd39OWLLYg51wn1CGAO-8" value="Nacionalidade" style="ellipse;whiteSpace=wrap;html=1;" vertex="1" parent="1">
          <mxGeometry x="308" y="100" width="110" height="30" as="geometry" />
        </mxCell>
        <mxCell id="vgd39OWLLYg51wn1CGAO-11" value="Cursos Desejados" style="ellipse;whiteSpace=wrap;html=1;" vertex="1" parent="1">
          <mxGeometry x="668" y="95" width="90" height="40" as="geometry" />
        </mxCell>
        <mxCell id="vgd39OWLLYg51wn1CGAO-12" value="Telefone" style="ellipse;whiteSpace=wrap;html=1;" vertex="1" parent="1">
          <mxGeometry x="588" y="100" width="70" height="30" as="geometry" />
        </mxCell>
        <mxCell id="vgd39OWLLYg51wn1CGAO-13" value="Endereço" style="ellipse;whiteSpace=wrap;html=1;" vertex="1" parent="1">
          <mxGeometry x="508" y="100" width="70" height="30" as="geometry" />
        </mxCell>
        <mxCell id="vgd39OWLLYg51wn1CGAO-14" value="Sexo" style="ellipse;whiteSpace=wrap;html=1;" vertex="1" parent="1">
          <mxGeometry x="428" y="100" width="70" height="30" as="geometry" />
        </mxCell>
        <mxCell id="vgd39OWLLYg51wn1CGAO-18" value="" style="endArrow=none;html=1;entryX=0;entryY=0.5;entryDx=0;entryDy=0;exitX=0.5;exitY=0;exitDx=0;exitDy=0;" edge="1" parent="1" source="vgd39OWLLYg51wn1CGAO-4" target="vgd39OWLLYg51wn1CGAO-1">
          <mxGeometry width="50" height="50" relative="1" as="geometry">
            <mxPoint x="230" y="150" as="sourcePoint" />
            <mxPoint x="280" y="100" as="targetPoint" />
          </mxGeometry>
        </mxCell>
        <mxCell id="vgd39OWLLYg51wn1CGAO-19" value="" style="endArrow=none;html=1;entryX=0;entryY=0.75;entryDx=0;entryDy=0;exitX=0.5;exitY=0;exitDx=0;exitDy=0;" edge="1" parent="1" source="vgd39OWLLYg51wn1CGAO-6" target="vgd39OWLLYg51wn1CGAO-1">
          <mxGeometry width="50" height="50" relative="1" as="geometry">
            <mxPoint x="50" y="290" as="sourcePoint" />
            <mxPoint x="100" y="240" as="targetPoint" />
          </mxGeometry>
        </mxCell>
        <mxCell id="vgd39OWLLYg51wn1CGAO-20" value="" style="endArrow=none;html=1;entryX=0;entryY=1;entryDx=0;entryDy=0;exitX=0.5;exitY=0;exitDx=0;exitDy=0;" edge="1" parent="1" source="vgd39OWLLYg51wn1CGAO-7" target="vgd39OWLLYg51wn1CGAO-1">
          <mxGeometry width="50" height="50" relative="1" as="geometry">
            <mxPoint x="120" y="320" as="sourcePoint" />
            <mxPoint x="170" y="270" as="targetPoint" />
          </mxGeometry>
        </mxCell>
        <mxCell id="vgd39OWLLYg51wn1CGAO-21" value="" style="endArrow=none;html=1;entryX=0.5;entryY=1;entryDx=0;entryDy=0;exitX=0.5;exitY=0;exitDx=0;exitDy=0;" edge="1" parent="1" source="vgd39OWLLYg51wn1CGAO-8" target="vgd39OWLLYg51wn1CGAO-1">
          <mxGeometry width="50" height="50" relative="1" as="geometry">
            <mxPoint x="170" y="330" as="sourcePoint" />
            <mxPoint x="220" y="280" as="targetPoint" />
          </mxGeometry>
        </mxCell>
        <mxCell id="vgd39OWLLYg51wn1CGAO-22" value="" style="endArrow=none;html=1;entryX=0.5;entryY=1;entryDx=0;entryDy=0;exitX=0.5;exitY=0;exitDx=0;exitDy=0;" edge="1" parent="1" source="vgd39OWLLYg51wn1CGAO-14" target="vgd39OWLLYg51wn1CGAO-1">
          <mxGeometry width="50" height="50" relative="1" as="geometry">
            <mxPoint x="320" y="290" as="sourcePoint" />
            <mxPoint x="370" y="240" as="targetPoint" />
          </mxGeometry>
        </mxCell>
        <mxCell id="vgd39OWLLYg51wn1CGAO-23" value="" style="endArrow=none;html=1;entryX=1;entryY=1;entryDx=0;entryDy=0;exitX=0.5;exitY=0;exitDx=0;exitDy=0;" edge="1" parent="1" source="vgd39OWLLYg51wn1CGAO-13" target="vgd39OWLLYg51wn1CGAO-1">
          <mxGeometry width="50" height="50" relative="1" as="geometry">
            <mxPoint x="190" y="280" as="sourcePoint" />
            <mxPoint x="240" y="230" as="targetPoint" />
          </mxGeometry>
        </mxCell>
        <mxCell id="vgd39OWLLYg51wn1CGAO-24" value="" style="endArrow=none;html=1;entryX=1;entryY=0.75;entryDx=0;entryDy=0;exitX=0.5;exitY=0;exitDx=0;exitDy=0;" edge="1" parent="1" source="vgd39OWLLYg51wn1CGAO-12" target="vgd39OWLLYg51wn1CGAO-1">
          <mxGeometry width="50" height="50" relative="1" as="geometry">
            <mxPoint x="330" y="270" as="sourcePoint" />
            <mxPoint x="380" y="220" as="targetPoint" />
          </mxGeometry>
        </mxCell>
        <mxCell id="vgd39OWLLYg51wn1CGAO-25" value="" style="endArrow=none;html=1;entryX=1;entryY=0.5;entryDx=0;entryDy=0;exitX=0.5;exitY=0;exitDx=0;exitDy=0;" edge="1" parent="1" source="vgd39OWLLYg51wn1CGAO-11" target="vgd39OWLLYg51wn1CGAO-1">
          <mxGeometry width="50" height="50" relative="1" as="geometry">
            <mxPoint x="90" y="300" as="sourcePoint" />
            <mxPoint x="140" y="250" as="targetPoint" />
          </mxGeometry>
        </mxCell>
        <mxCell id="vgd39OWLLYg51wn1CGAO-26" value="Contém" style="rhombus;whiteSpace=wrap;html=1;" vertex="1" parent="1">
          <mxGeometry x="654.5" y="160" width="117" height="50" as="geometry" />
        </mxCell>
        <mxCell id="vgd39OWLLYg51wn1CGAO-27" value="" style="endArrow=none;html=1;entryX=0.5;entryY=1;entryDx=0;entryDy=0;exitX=0.5;exitY=0;exitDx=0;exitDy=0;" edge="1" parent="1" source="vgd39OWLLYg51wn1CGAO-26" target="vgd39OWLLYg51wn1CGAO-11">
          <mxGeometry width="50" height="50" relative="1" as="geometry">
            <mxPoint x="350" y="280" as="sourcePoint" />
            <mxPoint x="400" y="230" as="targetPoint" />
          </mxGeometry>
        </mxCell>
        <mxCell id="vgd39OWLLYg51wn1CGAO-28" value="Curso" style="rounded=0;whiteSpace=wrap;html=1;" vertex="1" parent="1">
          <mxGeometry x="667" y="240" width="92" height="20" as="geometry" />
        </mxCell>
        <mxCell id="vgd39OWLLYg51wn1CGAO-29" value="" style="endArrow=none;html=1;entryX=0.5;entryY=1;entryDx=0;entryDy=0;exitX=0.5;exitY=0;exitDx=0;exitDy=0;" edge="1" parent="1" source="vgd39OWLLYg51wn1CGAO-28" target="vgd39OWLLYg51wn1CGAO-26">
          <mxGeometry width="50" height="50" relative="1" as="geometry">
            <mxPoint x="390" y="260" as="sourcePoint" />
            <mxPoint x="440" y="210" as="targetPoint" />
          </mxGeometry>
        </mxCell>
        <mxCell id="vgd39OWLLYg51wn1CGAO-30" value="Código" style="ellipse;whiteSpace=wrap;html=1;rounded=0;" vertex="1" parent="1">
          <mxGeometry x="586" y="280" width="72" height="30" as="geometry" />
        </mxCell>
        <mxCell id="vgd39OWLLYg51wn1CGAO-31" value="Nome" style="ellipse;whiteSpace=wrap;html=1;rounded=0;" vertex="1" parent="1">
          <mxGeometry x="677" y="280" width="72" height="30" as="geometry" />
        </mxCell>
        <mxCell id="vgd39OWLLYg51wn1CGAO-33" value="" style="endArrow=none;html=1;entryX=0.5;entryY=1;entryDx=0;entryDy=0;exitX=0.5;exitY=0;exitDx=0;exitDy=0;" edge="1" parent="1" source="vgd39OWLLYg51wn1CGAO-30" target="vgd39OWLLYg51wn1CGAO-28">
          <mxGeometry width="50" height="50" relative="1" as="geometry">
            <mxPoint x="440" y="280" as="sourcePoint" />
            <mxPoint x="490" y="230" as="targetPoint" />
          </mxGeometry>
        </mxCell>
        <mxCell id="vgd39OWLLYg51wn1CGAO-34" value="" style="endArrow=none;html=1;entryX=0.5;entryY=1;entryDx=0;entryDy=0;exitX=0.5;exitY=0;exitDx=0;exitDy=0;" edge="1" parent="1" source="vgd39OWLLYg51wn1CGAO-31" target="vgd39OWLLYg51wn1CGAO-28">
          <mxGeometry width="50" height="50" relative="1" as="geometry">
            <mxPoint x="470" y="280" as="sourcePoint" />
            <mxPoint x="520" y="230" as="targetPoint" />
          </mxGeometry>
        </mxCell>
      </root>
    </mxGraphModel>
  </diagram>
</mxfile>
